<?xml version="1.0" encoding="UTF-8"?>
<svg version="1.1" xmlns="http://www.w3.org/2000/svg" width="845" height="726">
<path d="M0 0 C1.2139444 0.00182281 2.42788879 0.00364563 3.67861938 0.00552368 C21.3056732 0.05009253 38.51097379 0.48371735 55.9375 3.3125 C57.59531494 3.56193359 57.59531494 3.56193359 59.28662109 3.81640625 C108.67238684 11.31066324 156.23102833 28.43846041 198.9375 54.3125 C199.77410156 54.81346191 200.61070312 55.31442383 201.47265625 55.83056641 C212.51721084 62.47415118 222.86718522 69.76375331 232.96923828 77.76171875 C234.85077824 79.24417246 236.7476605 80.70370651 238.65234375 82.15625 C246.30965502 88.02451874 253.43622147 94.30031053 260.44873047 100.92089844 C262.68090932 103.007389 264.96600611 105.0330581 267.25 107.0625 C273.60568152 112.77027224 279.55264256 118.72951458 285.11328125 125.21484375 C286.3571954 126.64521184 287.62684069 128.05350725 288.91796875 129.44140625 C296.19457447 137.27469219 302.55470646 145.75120327 308.9375 154.3125 C309.48486816 155.04033691 310.03223633 155.76817383 310.59619141 156.51806641 C319.20480875 167.99366306 326.83520737 179.85178123 333.9375 192.3125 C334.4634375 193.22741211 334.989375 194.14232422 335.53125 195.08496094 C353.57771033 226.67711174 377.9375 274.55210482 377.9375 312.3125 C375.9575 312.3125 373.9775 312.3125 371.9375 312.3125 C370.60523965 308.45520776 369.47893994 304.63198211 368.5625 300.65625 C361.18794364 269.45797826 350.76614184 239.70736619 335.92626953 211.22070312 C334.91254729 209.26434436 333.92241414 207.2971715 332.93359375 205.328125 C324.0789501 187.91081729 313.38345758 171.52128067 301.35791016 156.13427734 C299.94729628 154.32506443 298.55615471 152.50223806 297.16796875 150.67578125 C291.67490297 143.50120469 285.8407133 136.77790075 279.64453125 130.203125 C277.49293902 127.90560949 275.41490159 125.58280211 273.375 123.1875 C266.52080477 115.28009916 258.9038967 108.08187336 250.9375 101.3125 C249.92221636 100.42297035 248.90798392 99.53224014 247.89453125 98.640625 C229.42411373 82.4713348 209.23570514 68.5011726 187.9375 56.3125 C186.75559082 55.6323584 186.75559082 55.6323584 185.54980469 54.93847656 C100.09527679 6.09333404 -2.85519779 -5.65130627 -97.734375 19.26953125 C-123.57961256 26.32170809 -148.38806079 35.94292237 -172.15429688 48.32373047 C-174.11065564 49.33745271 -176.0778285 50.32758586 -178.046875 51.31640625 C-196.1697011 60.52972267 -213.09098879 71.76174919 -229.0625 84.3125 C-230.42181641 85.37017578 -230.42181641 85.37017578 -231.80859375 86.44921875 C-234.25097633 88.37577013 -236.66220931 90.33377935 -239.0625 92.3125 C-240.0421875 93.11816406 -241.021875 93.92382812 -242.03125 94.75390625 C-256.28255951 106.58691793 -270.00544728 119.23432284 -282.0625 133.3125 C-282.95630698 134.33136499 -283.85090063 135.34954018 -284.74609375 136.3671875 C-300.90217851 154.83051962 -314.90665757 175.00898348 -327.0625 196.3125 C-327.54299805 197.1492627 -328.02349609 197.98602539 -328.51855469 198.84814453 C-347.76495336 232.610285 -360.33867437 268.55620523 -369.0625 306.3125 C-362.51660742 303.10001296 -356.72870806 298.87694538 -351.0625 294.3125 C-347.2336044 291.56354931 -344.77714742 290.89342023 -340.0625 291.3125 C-339.4025 291.6425 -338.7425 291.9725 -338.0625 292.3125 C-338.41986712 295.03083347 -338.78556306 296.07928994 -340.91796875 297.875 C-341.68753906 298.349375 -342.45710938 298.82375 -343.25 299.3125 C-344.47203125 300.08400391 -344.47203125 300.08400391 -345.71875 300.87109375 C-346.4921875 301.34675781 -347.265625 301.82242187 -348.0625 302.3125 C-351.22502144 304.3588374 -354.1295621 306.36957413 -357 308.8125 C-359.71968545 311.03265139 -362.26724111 312.67733296 -365.33203125 314.328125 C-367.36441523 315.44217428 -367.36441523 315.44217428 -370.25 317.625 C-373.0625 319.3125 -373.0625 319.3125 -375.125 319.4375 C-379.31768345 317.00303864 -381.81598355 312.88811967 -384.125 308.75 C-385.89971769 305.38409441 -385.89971769 305.38409441 -387.96484375 302.94140625 C-390.72120217 299.48697568 -392.96077809 295.78619545 -395.28125 292.03125 C-397.03134026 289.24575858 -397.03134026 289.24575858 -399.28125 286.65625 C-401.0625 284.3125 -401.0625 284.3125 -401.0625 281.3125 C-397.75568678 280.92258098 -395.16584309 281.05037482 -392.0625 282.3125 C-389.83178441 285.15919228 -388.27157439 288.07995651 -386.625 291.296875 C-385.33757521 293.78160485 -384.14784319 295.67431424 -382.3125 297.75 C-380.201754 300.15390517 -378.67788078 302.56635268 -377.0625 305.3125 C-376.7325 305.3125 -376.4025 305.3125 -376.0625 305.3125 C-375.87252441 304.49499268 -375.68254883 303.67748535 -375.48681641 302.83520508 C-367.65903175 269.50556649 -356.91115007 237.66537702 -341.05126953 207.22070312 C-340.03754729 205.26434436 -339.04741414 203.2971715 -338.05859375 201.328125 C-328.9952487 183.4982462 -318.02193328 166.8745982 -305.58105469 151.23242188 C-304.10985743 149.37237441 -302.66455335 147.49516565 -301.2265625 145.609375 C-295.35671776 137.94715548 -289.07799785 130.81728275 -282.45410156 123.80126953 C-280.367611 121.56909068 -278.3419419 119.28399389 -276.3125 117 C-270.60472776 110.64431848 -264.64548542 104.69735744 -258.16015625 99.13671875 C-256.72978816 97.8928046 -255.32149275 96.62315931 -253.93359375 95.33203125 C-246.10030781 88.05542553 -237.62379673 81.69529354 -229.0625 75.3125 C-228.33466309 74.76513184 -227.60682617 74.21776367 -226.85693359 73.65380859 C-215.38133694 65.04519125 -203.52321877 57.41479263 -191.0625 50.3125 C-189.69013184 49.52359375 -189.69013184 49.52359375 -188.29003906 48.71875 C-145.39472423 24.21555609 -97.11487216 8.30454686 -48.0625 2.3125 C-47.35862152 2.22636444 -46.65474304 2.14022888 -45.92953491 2.05148315 C-30.62001458 0.23819482 -15.40419475 -0.04803735 0 0 Z " fill="#FFFFFF" transform="translate(401.0625,-0.31250000000000006)"/>
<path d="M0 0 C3.49421637 1.16473879 3.61210724 1.59443985 5.19921875 4.7265625 C5.60011719 5.50451172 6.00101563 6.28246094 6.4140625 7.08398438 C6.83429687 7.92251953 7.25453125 8.76105469 7.6875 9.625 C8.57643052 11.35697229 9.46575884 13.08874045 10.35546875 14.8203125 C10.79810059 15.68946289 11.24073242 16.55861328 11.69677734 17.45410156 C13.59225482 21.15699387 15.54101847 24.83041685 17.5 28.5 C17.98859497 29.42353271 17.98859497 29.42353271 18.48706055 30.36572266 C19.8916314 33.00624124 21.33858447 35.50787671 23 38 C23 39.32 23 40.64 23 42 C19.92034729 42.00975603 17.85256373 42.0016381 15 41 C12.76537003 38.57496546 11.53182788 35.80182799 10.1875 32.8125 C9.63545898 31.67844727 9.63545898 31.67844727 9.07226562 30.52148438 C8.35488551 29.04180768 7.65025394 27.55586921 6.9597168 26.06347656 C6.10407956 24.22378032 5.19609693 22.40863732 4.28125 20.59765625 C3.17724966 18.35936288 2.46882691 16.43789992 2 14 C1.34 14 0.68 14 0 14 C-0.26167969 15.28390625 -0.52335938 16.5678125 -0.79296875 17.890625 C-9.95444731 58.88165199 -34.65999762 100.61423299 -60.48144531 133.08007812 C-61.95264257 134.94012559 -63.39794665 136.81733435 -64.8359375 138.703125 C-70.70578224 146.36534452 -76.98450215 153.49521725 -83.60839844 160.51123047 C-85.694889 162.74340932 -87.7205581 165.02850611 -89.75 167.3125 C-95.45777224 173.66818152 -101.41701458 179.61514256 -107.90234375 185.17578125 C-109.33271184 186.4196954 -110.74100725 187.68934069 -112.12890625 188.98046875 C-119.96219219 196.25707447 -128.43870327 202.61720646 -137 209 C-137.72783691 209.54736816 -138.45567383 210.09473633 -139.20556641 210.65869141 C-150.67919415 219.26583174 -162.53325589 226.91146369 -175 234 C-175.94149902 234.53657227 -176.88299805 235.07314453 -177.85302734 235.62597656 C-229.90336469 265.07016341 -291.12441188 283.95208371 -351.21875 284.203125 C-352.34721848 284.21013931 -353.47568695 284.21715363 -354.63835144 284.22438049 C-358.25894203 284.24178561 -361.87936911 284.24823254 -365.5 284.25 C-366.73642242 284.25067474 -367.97284485 284.25134949 -369.24673462 284.25204468 C-387.05202715 284.23658305 -404.3968327 283.85745614 -422 281 C-423.10520996 280.83371094 -424.21041992 280.66742187 -425.34912109 280.49609375 C-466.47295217 274.25557983 -506.21394109 261.19995862 -543.09179688 241.98876953 C-545.04815564 240.97504729 -547.0153285 239.98491414 -548.984375 238.99609375 C-566.8142538 229.9327487 -583.4379018 218.95943328 -599.08007812 206.51855469 C-600.94012559 205.04735743 -602.81733435 203.60205335 -604.703125 202.1640625 C-612.36534452 196.29421776 -619.49521725 190.01549785 -626.51123047 183.39160156 C-628.74340932 181.305111 -631.02850611 179.2794419 -633.3125 177.25 C-639.66818152 171.54222776 -645.61514256 165.58298542 -651.17578125 159.09765625 C-652.4196954 157.66728816 -653.68934069 156.25899275 -654.98046875 154.87109375 C-662.25707447 147.03780781 -668.61720646 138.56129673 -675 130 C-675.82105225 128.90824463 -675.82105225 128.90824463 -676.65869141 127.79443359 C-685.26730875 116.31883694 -692.89770737 104.46071877 -700 92 C-700.5259375 91.08508789 -701.051875 90.17017578 -701.59375 89.22753906 C-713.49608502 68.39129993 -722.89581133 46.65012609 -730.75 24 C-731.39618286 22.13855347 -731.39618286 22.13855347 -732.05541992 20.23950195 C-735 11.52405713 -735 11.52405713 -735 7 C-733.02 7 -731.04 7 -729 7 C-728.62415771 8.13707397 -728.62415771 8.13707397 -728.24072266 9.29711914 C-720.93938237 31.25577587 -712.69849761 52.53337097 -701.98876953 73.09179688 C-700.97504729 75.04815564 -699.98491414 77.0153285 -698.99609375 78.984375 C-690.1414501 96.40168271 -679.44595758 112.79121933 -667.42041016 128.17822266 C-666.00979628 129.98743557 -664.61865471 131.81026194 -663.23046875 133.63671875 C-657.73740297 140.81129531 -651.9032133 147.53459925 -645.70703125 154.109375 C-643.55543902 156.40689051 -641.47740159 158.72969789 -639.4375 161.125 C-632.58330477 169.03240084 -624.9663967 176.23062664 -617 183 C-615.98471636 183.88952965 -614.97048392 184.78025986 -613.95703125 185.671875 C-595.49335079 201.83526747 -575.30771834 215.84176 -554 228 C-553.1632373 228.48049805 -552.32647461 228.96099609 -551.46435547 229.45605469 C-464.81435044 278.85163561 -360.57448367 290.21347194 -264.69726562 264.05224609 C-240.14151293 257.06365034 -216.55792696 247.78794056 -193.90820312 235.98876953 C-191.95184436 234.97504729 -189.9846715 233.98491414 -188.015625 232.99609375 C-160.65995539 219.09051194 -136.0381392 200.77085601 -113.39453125 180.17578125 C-111.77584529 178.70496873 -110.14794029 177.24424845 -108.51171875 175.79296875 C-99.77371661 168.03340542 -91.57863893 159.89469 -84 151 C-83.10904375 149.98352323 -82.21702661 148.96797582 -81.32421875 147.953125 C-65.16325982 129.48956332 -51.15744038 109.30631699 -39 88 C-38.27925293 86.74485596 -38.27925293 86.74485596 -37.54394531 85.46435547 C-24.38503506 62.38092132 -14.23637117 38.2414463 -6 13 C-7.0621875 13.53109375 -8.124375 14.0621875 -9.21875 14.609375 C-17.71875 18.859375 -17.71875 18.859375 -19.85717773 19.91943359 C-21.30152149 20.64777648 -22.7359639 21.39605154 -24.16040039 22.16259766 C-25.19668579 22.71246338 -25.19668579 22.71246338 -26.25390625 23.2734375 C-26.8682251 23.60778809 -27.48254395 23.94213867 -28.11547852 24.28662109 C-31.62624578 25.61560956 -34.41426063 24.88070792 -38 24 C-38.33 23.34 -38.66 22.68 -39 22 C-36.93427773 19.75630781 -35.06473438 18.36325175 -32.3125 17.0625 C-31.68988281 16.76472656 -31.06726563 16.46695312 -30.42578125 16.16015625 C-29.62527344 15.77730469 -28.82476563 15.39445312 -28 15 C-21.96953801 12.03531809 -16.00981657 8.94000779 -10.0625 5.8125 C-9.20076172 5.36197266 -8.33902344 4.91144531 -7.45117188 4.44726562 C-6.63326172 4.01736328 -5.81535156 3.58746094 -4.97265625 3.14453125 C-4.23281494 2.75628174 -3.49297363 2.36803223 -2.73071289 1.96801758 C-1.02799135 1.11864485 -1.02799135 1.11864485 0 0 Z " fill="#FFFFFF" transform="translate(822,442)"/>
<path d="" fill="#FFFFFF" transform="translate(0,0)"/>
<path d="" fill="#FFFFFF" transform="translate(0,0)"/>
</svg>
