<?xml version="1.0" encoding="UTF-8"?>
<svg version="1.1" xmlns="http://www.w3.org/2000/svg" width="1050" height="550">
<path d="M0 0 C8.46455966 4.92772487 14.99387836 11.89773438 18.09765625 21.26953125 C19.78190767 30.4998895 19.3728662 40.30112372 14.49609375 48.453125 C8.79290512 56.68285575 1.26780837 62.19181722 -8.50390625 64.453125 C-20.73447666 65.59336464 -31.28791454 64.46549042 -41.37890625 56.765625 C-47.95728746 50.4767569 -51.85608549 42.50883218 -52.50390625 33.453125 C-52.60209486 23.67634503 -50.11927344 14.32920449 -43.33984375 7.05078125 C-31.57182314 -3.18990051 -14.4837291 -6.26085093 0 0 Z M-28.50390625 18.453125 C-29.24640625 18.989375 -29.98890625 19.525625 -30.75390625 20.078125 C-33.88410492 24.32625177 -34.9172002 29.44349723 -34.19921875 34.671875 C-32.51051106 40.09241819 -29.08249925 43.26465903 -24.50390625 46.453125 C-20.57142303 48.41936661 -15.80008319 47.78172777 -11.50390625 47.453125 C-6.20841168 45.68796014 -3.74669147 42.80772229 -0.50390625 38.453125 C1.47045587 34.50440076 0.93439068 29.75695733 0.49609375 25.453125 C-1.68916967 21.00166249 -4.44335835 18.26427355 -8.50390625 15.453125 C-15.67280864 13.06349087 -22.71112963 13.36678456 -28.50390625 18.453125 Z " fill="#00CBD2" transform="translate(568.50390625,244.546875)"/>
<path d="M0 0 C2.475 2.475 2.475 2.475 5 5 C2.03 8.96 -0.94 12.92 -4 17 C-10 15 -10 15 -12.25 13.8125 C-17.87384516 12.15090939 -23.28390142 13.12634981 -28.4375 15.75 C-32.82365985 19.60126231 -34.52964266 23.05448443 -35.0625 28.94921875 C-34.91497551 33.78986611 -32.67520634 37.1788031 -29.6875 40.8125 C-25.14765758 44.50772057 -20.68869686 45.42534732 -14.95703125 45.25 C-11.7919376 44.84567666 -9.62828404 43.77256365 -7 42 C-6.01 40.35 -5.02 38.7 -4 37 C-8.62 37 -13.24 37 -18 37 C-18 32.71 -18 28.42 -18 24 C-7.11 24 3.78 24 15 24 C15 37.06828447 14.77683725 44.9485527 6.06640625 54.2421875 C-2.81794888 61.79976747 -12.8367878 62.69584689 -24.00390625 62.18359375 C-31.2510251 61.517029 -38.81631273 58.14639456 -44 53 C-50.92420764 44.4190801 -54.08142785 37.10133029 -54 26 C-52.58383926 15.53151767 -47.27112705 8.16305665 -39.2421875 1.54296875 C-28.04067937 -6.16538615 -11.82501908 -6.81011825 0 0 Z " fill="#00CBD2" transform="translate(796,246)"/>
<path d="M0 0 C39.8826087 0 39.8826087 0 49 9 C56.41463649 17.89756378 57.92719128 26.60879281 57 38 C55.60872919 46.11379785 52.32196561 52.7906196 45.6328125 57.7578125 C30.85068359 67.05842249 19.2918096 64 0 64 C0 42.88 0 21.76 0 0 Z M17 16 C17 26.23 17 36.46 17 47 C23.1955863 48.03259772 27.36100054 48.20423976 32.7734375 44.92578125 C36.09470888 42.35787142 38.05073795 40.08182681 39 36 C39.44719064 30.36539794 39.19721016 26.85093956 36 22 C30.0541824 16.21488017 25.25532279 16 17 16 Z " fill="#00CBD2" transform="translate(237,243)"/>
<path d="M0 0 C6 0 6 0 8.0546875 1.50390625 C8.65539062 2.18324219 9.25609375 2.86257812 9.875 3.5625 C12.34436048 6.23107718 14.76890459 8.7355138 17.5625 11.0625 C24.42489985 16.94455701 30.64547271 23.58873586 37 30 C37.33 20.43 37.66 10.86 38 1 C43.61 1 49.22 1 55 1 C55 22.45 55 43.9 55 66 C48 66 48 66 46.01930237 64.86108398 C45.50189987 64.32813721 44.98449738 63.79519043 44.45141602 63.24609375 C43.85132217 62.64547119 43.25122833 62.04484863 42.63294983 61.42602539 C42.01286545 60.76981201 41.39278107 60.11359863 40.75390625 59.4375 C40.09792953 58.77161865 39.44195282 58.1057373 38.76609802 57.41967773 C36.6811901 55.29568372 34.62197174 53.14863781 32.5625 51 C31.15071718 49.5530966 29.73732241 48.10776416 28.32226562 46.6640625 C24.8591763 43.12988336 21.43188047 39.56559009 18 36 C17.67 45.57 17.34 55.14 17 65 C11.39 65 5.78 65 0 65 C0 43.55 0 22.1 0 0 Z " fill="#00CBD2" transform="translate(680,242)"/>
<path d="M0 0 C13.86 0 27.72 0 42 0 C42 5.28 42 10.56 42 16 C33.75 16 25.5 16 17 16 C17 18.64 17 21.28 17 24 C23.93 24 30.86 24 38 24 C38 28.95 38 33.9 38 39 C31.07 39 24.14 39 17 39 C17 41.97 17 44.94 17 48 C25.25 48 33.5 48 42 48 C42 53.28 42 58.56 42 64 C28.14 64 14.28 64 0 64 C0 42.88 0 21.76 0 0 Z " fill="#00CBD2" transform="translate(421,243)"/>
<path d="M0 0 C13.86 0 27.72 0 42 0 C42 5.28 42 10.56 42 16 C33.75 16 25.5 16 17 16 C17 18.64 17 21.28 17 24 C23.93 24 30.86 24 38 24 C38 28.95 38 33.9 38 39 C31.07 39 24.14 39 17 39 C17 41.97 17 44.94 17 48 C25.25 48 33.5 48 42 48 C42 53.28 42 58.56 42 64 C28.14 64 14.28 64 0 64 C0 42.88 0 21.76 0 0 Z " fill="#00CBD2" transform="translate(302,243)"/>
<path d="M0 0 C34.24324324 0 34.24324324 0 41.75 6.3125 C47.06553439 12.66161053 48.70685171 16.7532789 48.375 25.0703125 C47.41651497 32.55847676 43.7085722 36.75807943 38.09765625 41.5546875 C33.31987542 44.84664077 29.44521238 45.23262079 23.6875 45.125 C20.3771875 45.063125 20.3771875 45.063125 17 45 C17 51.27 17 57.54 17 64 C11.39 64 5.78 64 0 64 C0 42.88 0 21.76 0 0 Z M17 16 C17 20.29 17 24.58 17 29 C23.30073734 29.43790763 23.30073734 29.43790763 29.125 27.4375 C31.35958611 25.03351378 31.35958611 25.03351378 31.0625 21.375 C30.38057964 17.99139899 30.38057964 17.99139899 28.23046875 16.796875 C24.4757867 15.45544744 20.96083599 15.88350482 17 16 Z " fill="#00CBD2" transform="translate(596,243)"/>
<path d="M0 0 C6.27 0 12.54 0 19 0 C23.96427537 10.54908517 28.5261112 21.23566633 33 32 C34.77139515 27.97941395 36.5420154 23.95848709 38.3125 19.9375 C38.81201172 18.80376953 39.31152344 17.67003906 39.82617188 16.50195312 C40.31279297 15.39658203 40.79941406 14.29121094 41.30078125 13.15234375 C41.74591064 12.14163818 42.19104004 11.13093262 42.6496582 10.08959961 C44.11642101 6.73362722 45.55726855 3.36637338 47 0 C53.6 0 60.2 0 67 0 C62.45979173 11.15514286 57.48065101 22.09879683 52.5 33.0625 C51.64957441 34.93807616 50.79931291 36.81372673 49.94921875 38.68945312 C47.63517804 43.79404424 45.31829056 48.89733777 43 54 C42.70335449 54.65297058 42.40670898 55.30594116 42.10107422 55.97869873 C40.73468813 58.98608974 39.36778554 61.99324521 38 65 C35.03 65 32.06 65 29 65 C23.14319593 53.55242491 17.68010563 41.95211163 12.38867188 30.2331543 C11.11134417 27.40728884 9.82542244 24.58543533 8.5390625 21.76367188 C7.71562757 19.94554714 6.89269228 18.127196 6.0703125 16.30859375 C5.5000383 15.06002846 5.5000383 15.06002846 4.91824341 13.78623962 C4.56382172 12.99753983 4.20940002 12.20884003 3.84423828 11.39624023 C3.53527618 10.7139183 3.22631409 10.03159637 2.9079895 9.32859802 C1.72471759 6.2940204 0.89479812 3.13179343 0 0 Z " fill="#00CBD2" transform="translate(348,243)"/>
<path d="M0 0 C5.61 0 11.22 0 17 0 C17 15.84 17 31.68 17 48 C25.25 48 33.5 48 42 48 C42 53.28 42 58.56 42 64 C28.14 64 14.28 64 0 64 C0 42.88 0 21.76 0 0 Z " fill="#00CBD2" transform="translate(473,243)"/>
<path d="M0 0 C5.61 0 11.22 0 17 0 C17 21.12 17 42.24 17 64 C11.39 64 5.78 64 0 64 C0 42.88 0 21.76 0 0 Z " fill="#00CBD2" transform="translate(652,243)"/>
</svg>
