<?xml version="1.0" encoding="UTF-8"?>
<svg version="1.1" xmlns="http://www.w3.org/2000/svg" width="267" height="189">
<path d="M0 0 C88.11 0 176.22 0 267 0 C267 62.37 267 124.74 267 189 C178.89 189 90.78 189 0 189 C0 126.63 0 64.26 0 0 Z " fill="#FDFDFE" transform="translate(0,0)"/>
<path d="M0 0 C5.27838327 2.7944382 9.08864461 6.26593382 11 12 C11.53647936 18.3304565 10.71212234 22.7566272 7 28 C2.76636888 32.03202964 -0.83672474 32.45944519 -6.4375 32.53125 C-9 32 -9 32 -15 28 C-15 33.94 -15 39.88 -15 46 C-17.64 46 -20.28 46 -23 46 C-23 31.15 -23 16.3 -23 1 C-20.36 1 -17.72 1 -15 1 C-14.67 1.99 -14.34 2.98 -14 4 C-12.4840625 3.01 -12.4840625 3.01 -10.9375 2 C-7.13547593 -0.14630391 -4.40321363 -0.64046744 0 0 Z " fill="#140A54" transform="translate(48,127)"/>
<path d="M0 0 C2.64 0 5.28 0 8 0 C8 13.86 8 27.72 8 42 C5.69 42 3.38 42 1 42 C0.67 41.01 0.34 40.02 0 39 C-0.78375 39.66 -1.5675 40.32 -2.375 41 C-6.65520594 43.85685955 -11.03392324 43.66547092 -16 43 C-20.04776211 41.50408792 -22.26355963 39.07475295 -24.26953125 35.2265625 C-26.21511451 29.29617502 -25.98410826 23.11961778 -23.375 17.5 C-19.66482127 13.5945487 -16.51521124 10.81575637 -11 10.5 C-6.42553199 10.42375887 -5.39577055 12.0694863 -1 15 C-0.67 10.05 -0.34 5.1 0 0 Z " fill="#130A54" transform="translate(164,116)"/>
<path d="M0 0 C1.71586265 0.98297395 3.38911366 2.03950149 5.0546875 3.10546875 C5.3846875 2.11546875 5.7146875 1.12546875 6.0546875 0.10546875 C8.6946875 0.10546875 11.3346875 0.10546875 14.0546875 0.10546875 C14.0546875 10.33546875 14.0546875 20.56546875 14.0546875 31.10546875 C11.4146875 31.10546875 8.7746875 31.10546875 6.0546875 31.10546875 C5.7246875 29.78546875 5.3946875 28.46546875 5.0546875 27.10546875 C4.6215625 27.57984375 4.1884375 28.05421875 3.7421875 28.54296875 C0.40282923 31.63496715 -3.43111384 31.38608785 -7.73046875 31.31640625 C-10.87418866 31.01700435 -12.55161187 30.15721215 -14.9453125 28.10546875 C-19.3665785 22.21044742 -20.84141131 17.37382575 -19.9453125 10.10546875 C-16.19373378 2.74125867 -8.65603997 -3.98038786 0 0 Z " fill="#160D56" transform="translate(196.9453125,127.89453125)"/>
<path d="M0 0 C0.33 -0.99 0.66 -1.98 1 -3 C3.31 -3 5.62 -3 8 -3 C8 6.9 8 16.8 8 27 C5.69 27 3.38 27 1 27 C0.67 26.01 0.34 25.02 0 24 C-0.78375 24.66 -1.5675 25.32 -2.375 26 C-6.00043519 28.38267372 -9.24503587 28.69392388 -13.52734375 28.51953125 C-17.77370496 27.62732582 -20.29577615 25.28764241 -23 22 C-25.82677748 17.57547873 -25.65068389 12.08644357 -25 7 C-23.44789556 2.70371091 -21.0282189 -0.73412687 -17 -3 C-10.26657947 -5.46892086 -5.71950761 -3.66048487 0 0 Z " fill="#110953" transform="translate(89,131)"/>
<path d="M0 0 C2.97 0 5.94 0 9 0 C9 22.11 9 44.22 9 67 C6.03 67 3.06 67 0 67 C0 44.89 0 22.78 0 0 Z " fill="#0F0651" transform="translate(106,38)"/>
<path d="M0 0 C2.97 0 5.94 0 9 0 C9 21.78 9 43.56 9 66 C6.03 66 3.06 66 0 66 C0 44.22 0 22.44 0 0 Z " fill="#0E0550" transform="translate(152,17)"/>
<path d="M0 0 C3.59717222 1.38981654 4.73824509 2.53298404 6.62890625 5.90625 C8.68492288 10.9457752 8.32339334 16.08190881 8.1875 21.4375 C8.16719727 22.96407227 8.16719727 22.96407227 8.14648438 24.52148438 C8.1113661 27.01488214 8.06218559 29.50715512 8 32 C5.03 32 2.06 32 -1 32 C-1.02505615 31.30849854 -1.0501123 30.61699707 -1.07592773 29.90454102 C-1.19152161 26.79032134 -1.31441242 23.67643211 -1.4375 20.5625 C-1.47681641 19.47388672 -1.51613281 18.38527344 -1.55664062 17.26367188 C-1.59853516 16.22919922 -1.64042969 15.19472656 -1.68359375 14.12890625 C-1.72025146 13.17056885 -1.75690918 12.21223145 -1.79467773 11.22485352 C-1.75834424 9.02861075 -1.75834424 9.02861075 -3 8 C-7.84482682 7.52683666 -7.84482682 7.52683666 -12.18359375 9.41015625 C-14.92577578 13.31997708 -14.67409546 17.07842038 -14.75 21.75 C-14.77964844 22.63816406 -14.80929688 23.52632812 -14.83984375 24.44140625 C-14.91036918 26.62769449 -14.96314637 28.81292768 -15 31 C-17.64 31 -20.28 31 -23 31 C-23 21.1 -23 11.2 -23 1 C-20.36 1 -17.72 1 -15 1 C-14.67 2.32 -14.34 3.64 -14 5 C-13.21625 4.360625 -12.4325 3.72125 -11.625 3.0625 C-7.531976 -0.15344743 -5.22213247 -0.35404288 0 0 Z " fill="#1A1259" transform="translate(127,127)"/>
<path d="M0 0 C1.66514624 0.71896335 3.29571839 1.51699982 4.91796875 2.328125 C4.58796875 3.978125 4.25796875 5.628125 3.91796875 7.328125 C3.07492188 7.08255859 3.07492188 7.08255859 2.21484375 6.83203125 C-0.21262181 6.29947503 -2.35092806 6.22913819 -4.83203125 6.265625 C-6.03085938 6.27916016 -6.03085938 6.27916016 -7.25390625 6.29296875 C-8.15882813 6.31037109 -8.15882813 6.31037109 -9.08203125 6.328125 C-8.99506056 8.29257673 -8.99506056 8.29257673 -8.08203125 10.328125 C-5.6711877 11.51232907 -5.6711877 11.51232907 -2.76953125 12.265625 C0.74293396 13.44405936 2.80141697 14.23011555 5.66796875 16.640625 C7.39217313 20.34766441 7.05026233 22.43586583 5.91796875 26.328125 C4.02685764 28.6462612 2.57968844 29.99726515 -0.08203125 31.328125 C-2.18256841 31.47713991 -4.2889095 31.54950953 -6.39453125 31.578125 C-7.52503906 31.60390625 -8.65554687 31.6296875 -9.8203125 31.65625 C-13.35979462 31.30018234 -15.21462746 30.37242789 -18.08203125 28.328125 C-17.75203125 26.678125 -17.42203125 25.028125 -17.08203125 23.328125 C-16.29828125 23.658125 -15.51453125 23.988125 -14.70703125 24.328125 C-10.08841256 25.60222671 -5.83953769 25.49736436 -1.08203125 25.328125 C-1.08203125 23.678125 -1.08203125 22.028125 -1.08203125 20.328125 C-1.66210938 20.23015625 -2.2421875 20.1321875 -2.83984375 20.03125 C-8.17042065 19.01087554 -11.82996968 17.72977426 -16.08203125 14.328125 C-17.65138719 11.18941312 -17.43404228 8.78956678 -17.08203125 5.328125 C-12.31747155 -0.43949991 -7.26482672 -2.34437185 0 0 Z " fill="#140C54" transform="translate(235.08203125,127.671875)"/>
<path d="M0 0 C2.57285724 2.172635 4.48996919 3.97993838 6 7 C6.04104354 11.25211123 5.66745632 14.90537164 3.4375 18.5625 C-0.04026081 20.61348714 -3.06026998 20.82515906 -7 20 C-9.43119623 18.12984906 -10.64069173 16.71861655 -12 14 C-12.5811138 6.91041162 -12.5811138 6.91041162 -10.125 3.0625 C-6.79336654 -0.17114424 -4.60938161 -0.54228019 0 0 Z " fill="#F6F6F8" transform="translate(45,133)"/>
<path d="M0 0 C2.69990662 1.79993774 4.5418865 3.083773 6 6 C6.3506291 11.34709374 6.44403637 14.62872307 3 19 C-0.2105502 20.6052751 -3.5173319 20.46895333 -7 20 C-9.82189509 18.33580546 -10.71614764 17.05656158 -11.5625 13.90625 C-12.17492213 10.07861167 -12.2864399 7.67313376 -10.75 4.0625 C-7.44283433 0.16476903 -4.97151686 -0.59658202 0 0 Z " fill="#F6F6F8" transform="translate(197,133)"/>
<path d="M0 0 C2.57285724 2.172635 4.48996919 3.97993838 6 7 C6.04104354 11.25211123 5.66745632 14.90537164 3.4375 18.5625 C-0.04435561 20.61590202 -3.0560434 20.81794582 -7 20 C-9.96858157 17.79259319 -10.82865791 16.51402627 -12 13 C-12.38887761 8.80012182 -12.45908323 6.70392762 -10.125 3.125 C-6.81702459 -0.18297541 -4.63953877 -0.54582809 0 0 Z " fill="#F7F6F8" transform="translate(84,133)"/>
<path d="M0 0 C2.4375 1.4375 2.4375 1.4375 4 4 C4.78993472 8.82104491 4.62328493 12.70148972 2.5 17.125 C-0.55568459 19.41676344 -2.35827945 19.60700227 -6.09765625 19.36328125 C-8.73056157 18.86048824 -10.18535005 17.95982195 -12 16 C-13.23671367 12.28985899 -13.56368603 8.85561242 -13 5 C-9.21759811 -0.92576297 -6.78360996 -1.5204643 0 0 Z " fill="#FAFAFB" transform="translate(160,134)"/>
<path d="M0 0 C3.3 0 6.6 0 10 0 C10 6.6 10 13.2 10 20 C6.7 20 3.4 20 0 20 C0 13.4 0 6.8 0 0 Z " fill="#180F56" transform="translate(121,63)"/>
<path d="M0 0 C3.3 0 6.6 0 10 0 C10 6.6 10 13.2 10 20 C6.7 20 3.4 20 0 20 C0 13.4 0 6.8 0 0 Z " fill="#120654" transform="translate(136,38)"/>
<path d="M0 0 C3.3 0 6.6 0 10 0 C10 6.6 10 13.2 10 20 C6.7 20 3.4 20 0 20 C0 13.4 0 6.8 0 0 Z " fill="#130754" transform="translate(121,22)"/>
<path d="M0 0 C2.97 0 5.94 0 9 0 C9 6.27 9 12.54 9 19 C6.03 19 3.06 19 0 19 C0 12.73 0 6.46 0 0 Z " fill="#0D0451" transform="translate(137,80)"/>
<path d="M0 0 C2.31 0 4.62 0 7 0 C6.67 0.66 6.34 1.32 6 2 C4.68 1.67 3.36 1.34 2 1 C2 14.86 2 28.72 2 43 C3.65 43 5.3 43 7 43 C7 37.72 7 32.44 7 27 C7.33 27 7.66 27 8 27 C8 32.94 8 38.88 8 45 C5.36 45 2.72 45 0 45 C0 30.15 0 15.3 0 0 Z " fill="#241E60" transform="translate(25,128)"/>
<path d="M0 0 C3.3 0 6.6 0 10 0 C10 3.3 10 6.6 10 10 C6.7 10 3.4 10 0 10 C0 6.7 0 3.4 0 0 Z " fill="#E82092" transform="translate(136,64)"/>
<path d="M0 0 C3.3 0 6.6 0 10 0 C10 6.6 10 13.2 10 20 C6.7 20 3.4 20 0 20 C0 13.4 0 6.8 0 0 Z M2 1 C2 6.61 2 12.22 2 18 C3.98 18 5.96 18 8 18 C8 12.39 8 6.78 8 1 C6.02 1 4.04 1 2 1 Z " fill="#241E5E" transform="translate(121,22)"/>
<path d="M0 0 C3.3 0 6.6 0 10 0 C10 2.97 10 5.94 10 9 C6.7 9 3.4 9 0 9 C0 6.03 0 3.06 0 0 Z " fill="#FFCB0A" transform="translate(121,48)"/>
<path d="M0 0 C3.3 0 6.6 0 10 0 C10 6.6 10 13.2 10 20 C6.7 20 3.4 20 0 20 C0 13.4 0 6.8 0 0 Z M2 2 C2 7.61 2 13.22 2 19 C4.31 19 6.62 19 9 19 C9 13.39 9 7.78 9 2 C6.69 2 4.38 2 2 2 Z " fill="#2E2D67" transform="translate(136,38)"/>
</svg>
