<?xml version="1.0" encoding="UTF-8"?>
<svg version="1.1" xmlns="http://www.w3.org/2000/svg" width="884" height="862">
<path d="M0 0 C-0.00138269 0.978896 -0.00138269 0.978896 -0.00279331 1.97756767 C-0.02530037 18.17925627 -0.04162407 34.38093913 -0.05181217 50.58263969 C-0.05687538 58.41903128 -0.06371594 66.25541218 -0.07543945 74.09179688 C-0.08570374 80.95631549 -0.09192484 87.82082636 -0.09408849 94.68535244 C-0.09534455 98.28884989 -0.09807423 101.89232527 -0.10573006 105.49581528 C-0.13486988 119.82659561 -0.07468318 134.15234765 0.21046448 148.48068237 C0.24133188 150.03390092 0.24133188 150.03390092 0.27282286 151.61849761 C0.29418255 152.69182161 0.31554225 153.7651456 0.33754921 154.87099457 C0.91907063 184.18098763 1.16034979 213.4870415 1.29711914 242.80224609 C1.30221752 243.8947127 1.30731591 244.9871793 1.31256878 246.11275095 C1.37708245 260.07396952 1.43490438 274.03521319 1.49062455 287.99646929 C1.54048208 300.45597497 1.59456186 312.91546145 1.64874845 325.37494893 C1.74549339 347.64920506 1.83878016 369.92347425 1.92993164 392.19775391 C2.01776241 413.66000384 2.10780036 435.12224293 2.20043945 456.58447266 C2.20329604 457.24640245 2.20615262 457.90833225 2.20909577 458.59032053 C2.22349048 461.92580406 2.2378883 465.26128758 2.2522861 468.5967711 C2.25796976 469.91352017 2.26365342 471.23026923 2.26950932 472.58691978 C2.27801909 474.55805148 2.27801909 474.55805148 2.28670079 476.56900402 C2.37587615 497.24189376 2.4632939 517.91479098 2.55043279 538.58768939 C2.57652643 544.77646736 2.60270201 550.96524495 2.62907338 557.15402174 C2.69841651 573.42738173 2.76663402 589.70074572 2.83227539 605.97412109 C2.83663141 607.05202622 2.84098742 608.12993134 2.84547544 609.24050026 C2.95438425 636.30715147 3.0499745 663.37341749 3.004426 690.44033623 C2.98381373 703.23945434 3.06456588 716.03025317 3.37231445 728.82641602 C3.4412701 731.72074516 3.49922631 734.6151861 3.55664062 737.50976562 C3.74525328 746.37011579 3.93937671 755.19097052 5 764 C6.35491884 762.50067938 7.70888678 761.00049946 9.0625 759.5 C9.8875 758.59378906 10.7125 757.68757812 11.5625 756.75390625 C13.04888197 755.07458047 14.4979492 753.35992779 15.875 751.58984375 C18.79176829 747.86961383 20.60022832 745.61951023 25.4375 745 C26.613125 745 27.78875 745 29 745 C29 749 29 749 26.625 751.5625 C25.75875 752.366875 24.8925 753.17125 24 754 C23.34 754.99 22.68 755.98 22 757 C21.34 757 20.68 757 20 757 C19.63455078 757.84304688 19.63455078 757.84304688 19.26171875 758.703125 C17.75819064 761.44019785 15.93300252 763.45795941 13.8125 765.75 C10.29931299 769.57433884 6.86720089 773.44639122 3.5078125 777.40625 C2 779 2 779 -1 781 C-2.04800781 780.04287109 -2.04800781 780.04287109 -3.1171875 779.06640625 C-4.48230469 777.82697266 -4.48230469 777.82697266 -5.875 776.5625 C-6.77992188 775.73878906 -7.68484375 774.91507813 -8.6171875 774.06640625 C-10.81137927 771.99092058 -10.81137927 771.99092058 -13 771 C-13 770.34 -13 769.68 -13 769 C-13.57234375 768.731875 -14.1446875 768.46375 -14.734375 768.1875 C-17.07884634 766.95867364 -19.12404938 765.57477824 -21.25 764 C-21.95640625 763.484375 -22.6628125 762.96875 -23.390625 762.4375 C-24.18726563 761.7259375 -24.18726563 761.7259375 -25 761 C-25 760.34 -25 759.68 -25 759 C-25.598125 758.71125 -26.19625 758.4225 -26.8125 758.125 C-29 757 -29 757 -32 755 C-32 754.34 -32 753.68 -32 753 C-32.66 753 -33.32 753 -34 753 C-34 751.68 -34 750.36 -34 749 C-30.03094666 748.43299238 -26.4630104 747.94088818 -23.08984375 750.3828125 C-21.93289367 751.60037727 -20.80537542 752.84650361 -19.70703125 754.1171875 C-17.96207171 756.04183395 -16.21553106 757.37139304 -14.0625 758.8125 C-13.051875 759.534375 -12.04125 760.25625 -11 761 C-11 761.66 -11 762.32 -11 763 C-10.360625 763.309375 -9.72125 763.61875 -9.0625 763.9375 C-7 765 -7 765 -6 766 C-5.97021811 743.35410788 -6.05022527 720.70964122 -6.16908598 698.06409323 C-6.1942127 693.24223538 -6.21840198 688.4203728 -6.2427063 683.59851074 C-6.28479179 675.27122948 -6.32741435 666.94395112 -6.37039185 658.61667442 C-6.43278418 646.52303428 -6.49404617 634.42938858 -6.55500638 622.33574114 C-6.6543276 602.63308591 -6.75415641 582.93043329 -6.85449219 563.2277832 C-6.86047342 562.05321152 -6.86645465 560.87863983 -6.87261713 559.66847507 C-6.9392143 546.59290674 -7.00595447 533.51733914 -7.07287598 520.44177246 C-7.09708734 515.7109375 -7.12129842 510.98010255 -7.14550781 506.24926758 C-7.1514818 505.08192295 -7.15745579 503.91457832 -7.16361082 502.71185961 C-7.26397027 483.09588611 -7.36333149 463.47990769 -7.46193409 443.86392528 C-7.51708155 432.90025846 -7.57271659 421.93659455 -7.62960815 410.97293663 C-7.69321088 398.70811996 -7.75568785 386.4432981 -7.81640625 374.1784668 C-7.8211616 373.21950346 -7.82591694 372.26054011 -7.83081639 371.27251728 C-7.95303696 346.51271727 -8.05310801 321.7535558 -8.00312805 296.99338055 C-7.98022924 284.77268756 -8.0704839 272.55573225 -8.21875 260.3359375 C-8.2385514 258.64122047 -8.2385514 258.64122047 -8.25875282 256.91226673 C-8.2896066 254.33919493 -8.32233601 251.76615536 -8.35571289 249.19311523 C-9.04939765 193.60792187 -9.08653053 138.02618603 -9.0625 82.4375 C-9.06207577 81.42861693 -9.06165154 80.41973387 -9.06121445 79.38027859 C-9.05003554 53.25351015 -9.02972281 27.12675381 -9 1 C-5.8035914 -0.06546953 -3.34252724 -0.07427838 0 0 Z M3 765 C4 767 4 767 4 767 Z " fill="#FFFFFF" transform="translate(819,81)"/>
<path d="M0 0 C0 0.66 0 1.32 0 2 C0.8971875 2.433125 0.8971875 2.433125 1.8125 2.875 C4 4 4 4 7 6 C7 6.66 7 7.32 7 8 C9.475 8.99 9.475 8.99 12 10 C12 10.66 12 11.32 12 12 C12.598125 12.28875 13.19625 12.5775 13.8125 12.875 C16 14 16 14 19 16 C19 16.66 19 17.32 19 18 C19.56203125 18.24878906 20.1240625 18.49757813 20.703125 18.75390625 C23.37711859 20.20459325 25.46419538 21.9318185 27.75 23.9375 C28.54921875 24.62714844 29.3484375 25.31679688 30.171875 26.02734375 C32 28 32 28 32 31 C30.5629191 31.05422947 29.12524538 31.09289723 27.6875 31.125 C26.48673828 31.15980469 26.48673828 31.15980469 25.26171875 31.1953125 C23 31 23 31 20 29 C20 28.34 20 27.68 20 27 C19.401875 26.71125 18.80375 26.4225 18.1875 26.125 C16 25 16 25 13 23 C13 22.34 13 21.68 13 21 C12.2575 20.7525 11.515 20.505 10.75 20.25 C7.78613811 18.90279005 6.22231701 17.33628198 4 15 C3.90230687 66.42225328 3.84177819 117.84440763 4.22265625 169.265625 C4.22807584 169.99822359 4.23349542 170.73082219 4.23907924 171.48562074 C4.32252524 182.71960816 4.41105334 193.95355504 4.5 205.1875 C4.88014404 253.20970681 5.05717075 301.22633236 5 349.25 C4.95961167 383.29788971 4.93917157 417.34361944 5.21875 451.390625 C5.22423646 452.06206456 5.22972292 452.73350413 5.23537564 453.42529035 C5.32589263 464.47443625 5.42193089 475.52353474 5.51802588 486.57263327 C6.07440589 550.65223229 6.08464572 614.73080251 6.0625 678.8125 C6.06207577 680.07265049 6.06165154 681.33280098 6.06121445 682.63113785 C6.05008513 715.08743242 6.02980328 747.5437173 6 780 C3.03 780 0.06 780 -3 780 C-2.99888969 779.26567183 -2.99777939 778.53134365 -2.99663544 777.77476311 C-2.94721977 743.35161894 -2.9502539 708.93010767 -3.21875 674.5078125 C-3.22696589 673.44617146 -3.22696589 673.44617146 -3.23534775 672.36308312 C-3.29186272 665.06556837 -3.35003348 657.76806748 -3.40916348 650.47057348 C-3.54529856 633.64843801 -3.66872897 616.82621619 -3.78125 600.00390625 C-3.78672726 599.18527281 -3.79220451 598.36663936 -3.79784775 597.52319884 C-3.95628261 573.64945878 -4.04213552 549.776612 -4.03125 525.90234375 C-4.03092899 525.19826716 -4.03060799 524.49419057 -4.03027725 523.76877832 C-4.02496262 513.20001352 -4.01304358 502.63125762 -4 492.0625 C-3.98607261 480.74869973 -3.97393224 469.43490187 -3.96875 458.12109375 C-3.96842899 457.420879 -3.96810799 456.72066424 -3.96777725 455.99923086 C-3.9590588 433.65624452 -4.05048822 411.31499281 -4.21875 388.97265625 C-4.22422726 388.24526284 -4.22970451 387.51786944 -4.23534775 386.76843381 C-4.32458637 374.98412769 -4.42100987 363.19988097 -4.51822662 351.41563845 C-4.80314882 316.862817 -5.04653619 282.31199702 -5.03125 247.7578125 C-5.03092899 247.03195536 -5.03060799 246.30609823 -5.03027725 245.55824542 C-5.0245972 233.90405409 -5.01147238 222.24987203 -4.99739838 210.59568834 C-4.98453845 199.91665846 -4.97362412 189.23763062 -4.96875 178.55859375 C-4.96842899 177.85647239 -4.96810799 177.15435103 -4.96777725 176.43095326 C-4.95407517 141.22358741 -5.20438902 106.01845013 -5.5 70.8125 C-5.50601479 70.09506811 -5.51202957 69.37763622 -5.51822662 68.63846397 C-5.66839395 50.75887985 -5.8286793 32.87939454 -6 15 C-6.33 15.66 -6.66 16.32 -7 17 C-7.66 17 -8.32 17 -9 17 C-9.433125 17.8971875 -9.433125 17.8971875 -9.875 18.8125 C-11 21 -11 21 -13 24 C-13.66 24 -14.32 24 -15 24 C-15.3403125 24.804375 -15.3403125 24.804375 -15.6875 25.625 C-17.6945121 29.25673618 -20.22835295 33.11417648 -24 35 C-26.3329866 35.04022391 -28.66706666 35.04320247 -31 35 C-30.42676569 31.13066838 -28.61046448 28.84777943 -26 26 C-25.34 26 -24.68 26 -24 26 C-23.67708984 25.21496094 -23.67708984 25.21496094 -23.34765625 24.4140625 C-21.45963604 21.03204369 -18.9754736 18.2866829 -16.4375 15.375 C-12.85426322 11.44179069 -12.85426322 11.44179069 -10 7 C-9.34 7 -8.68 7 -8 7 C-7.731875 6.401875 -7.46375 5.80375 -7.1875 5.1875 C-5.24288471 1.60531394 -4.204264 0 0 0 Z " fill="#FFFFFF" transform="translate(69,0)"/>
<path d="M0 0 C3.86933162 0.57323431 6.15222057 2.38953552 9 5 C9 5.66 9 6.32 9 7 C9.52335938 7.21527344 10.04671875 7.43054688 10.5859375 7.65234375 C13.96795631 9.54036396 16.7133171 12.0245264 19.625 14.5625 C23.55820931 18.14573678 23.55820931 18.14573678 28 21 C28 21.66 28 22.32 28 23 C28.8971875 23.433125 28.8971875 23.433125 29.8125 23.875 C32 25 32 25 35 27 C35 28.32 35 29.64 35 31 C34.34 31 33.68 31 33 31 C33 31.66 33 32.32 33 33 C32.34 33 31.68 33 31 33 C30.34 34.65 29.68 36.3 29 38 C28.34 38 27.68 38 27 38 C27 38.66 27 39.32 27 40 C26.34 40 25.68 40 25 40 C24.34 41.65 23.68 43.3 23 45 C22.34 45 21.68 45 21 45 C20.58899048 45.88316895 20.58899048 45.88316895 20.16967773 46.78417969 C18.29319819 50.33895497 15.66418472 53.20593607 13.0625 56.25 C12.52431641 56.8996875 11.98613281 57.549375 11.43164062 58.21875 C10.64756836 59.13914062 10.64756836 59.13914062 9.84765625 60.078125 C9.37336182 60.63918945 8.89906738 61.20025391 8.41040039 61.77832031 C7 63 7 63 4 63 C3.94577053 61.5629191 3.90710277 60.12524538 3.875 58.6875 C3.85179687 57.88699219 3.82859375 57.08648437 3.8046875 56.26171875 C4 54 4 54 6 51 C6.66 51 7.32 51 8 51 C8.28875 50.401875 8.5775 49.80375 8.875 49.1875 C10 47 10 47 12 44 C12.66 44 13.32 44 14 44 C14.28875 43.401875 14.5775 42.80375 14.875 42.1875 C16 40 16 40 18 37 C18.66 37 19.32 37 20 37 C20 36.34 20 35.68 20 35 C-17.73179734 34.83860091 -55.44428856 35.26567894 -93.17037427 35.83422244 C-100.77515648 35.94867274 -108.38000103 36.0586773 -115.98485219 36.16843283 C-129.52798591 36.36400826 -143.0710364 36.56471369 -156.61403596 36.76935923 C-165.94338715 36.91030149 -175.27277856 37.04762036 -184.60225105 37.18028831 C-218.54501259 37.66318151 -252.48137619 38.31191633 -286.41859019 39.09990084 C-340.15100665 40.34733973 -393.88221445 41.33631983 -447.625 42 C-448.37639708 42.0092804 -449.12779416 42.0185608 -449.90196085 42.02812243 C-455.26609871 42.09430658 -460.63024092 42.16013287 -465.99438477 42.22583008 C-467.15663954 42.24006478 -467.15663954 42.24006478 -468.34237421 42.25458705 C-469.92282095 42.27394042 -471.50326773 42.29329107 -473.08371454 42.31263906 C-474.6842034 42.33223389 -476.28469218 42.35183476 -477.88518089 42.37144154 C-481.96269996 42.42138964 -486.04022014 42.47124246 -490.11774254 42.52091789 C-521.34732473 42.9019942 -552.57602902 43.33906875 -583.8046875 43.7890625 C-585.5985378 43.81490119 -585.5985378 43.81490119 -587.42862749 43.84126186 C-605.45244053 44.10098054 -623.47622373 44.36274351 -641.5 44.625 C-646.25547269 44.69418221 -651.01094552 44.76335437 -655.76641846 44.83251953 C-656.92972675 44.84944025 -658.09303504 44.86636096 -659.2915951 44.88379443 C-668.29981086 45.01479084 -677.30803187 45.14542246 -686.31625593 45.27584684 C-692.58470162 45.36664924 -698.85313828 45.45804483 -705.12156808 45.54993749 C-708.95881445 45.60608439 -712.79606752 45.66176288 -716.63332248 45.71731949 C-718.3961443 45.74294286 -720.15896323 45.76876572 -721.92177892 45.79480743 C-724.32329278 45.83026108 -726.72481602 45.86499848 -729.12634277 45.89956665 C-730.15564386 45.91502909 -730.15564386 45.91502909 -731.2057389 45.93080389 C-735.80441425 45.99598954 -740.40100772 46.00822951 -745 46 C-745 43.03 -745 40.06 -745 37 C-744.014169 36.98638239 -743.02833799 36.97276478 -742.01263332 36.95873451 C-600.81762031 35.03078207 -600.81762031 35.03078207 -459.625 32.9375 C-457.73260275 32.90804668 -457.73260275 32.90804668 -455.80197525 32.87799835 C-423.21517704 32.36880569 -390.63426971 31.73165982 -358.05324936 30.93729782 C-322.35134758 30.06789005 -286.64601244 29.50859901 -250.9375 29 C-249.85928333 28.98463062 -249.85928333 28.98463062 -248.7592845 28.96895075 C-229.39272721 28.69306013 -210.0260607 28.42522617 -190.65935582 28.15992516 C-180.36143259 28.01884385 -170.06352511 27.87664494 -159.765625 27.73388672 C-158.96611793 27.72280545 -158.16661087 27.71172419 -157.34287632 27.70030713 C-148.46837246 27.57728968 -139.59387217 27.45401784 -130.71937561 27.33047485 C-128.323568 27.29712864 -125.92776038 27.26378348 -123.53195274 27.23043942 C-121.94493663 27.20834905 -120.35792061 27.18625291 -118.77090466 27.16415095 C-109.61916153 27.03672017 -100.46740555 26.91032337 -91.31562191 26.78583467 C-83.52159914 26.67980428 -75.72758842 26.57292142 -67.93359375 26.46484375 C-67.25760785 26.45547019 -66.58162195 26.44609664 -65.88515162 26.43643904 C-37.25524545 26.03851426 -8.62756385 25.53976349 20 25 C19.57178955 24.63237549 19.1435791 24.26475098 18.70239258 23.88598633 C16.73730869 22.19688991 14.77489303 20.50472171 12.8125 18.8125 C12.13896484 18.23435547 11.46542969 17.65621094 10.77148438 17.06054688 C8.83440603 15.38804508 6.91235233 13.70069641 5 12 C4.4743042 11.53553467 3.9486084 11.07106934 3.40698242 10.5925293 C0.55020723 7.93448629 0.02195251 7.26782057 -0.3125 3.1875 C-0.209375 2.135625 -0.10625 1.08375 0 0 Z " fill="#FFFFFF" transform="translate(849,21)"/>
<path d="M0 0 C0.99 0.33 1.98 0.66 3 1 C3.25 8.625 3.25 8.625 1 12 C0.34 12 -0.32 12 -1 12 C-1.33 12.99 -1.66 13.98 -2 15 C-3.4375 17.1875 -3.4375 17.1875 -5 19 C-5.66 19 -6.32 19 -7 19 C-7 19.66 -7 20.32 -7 21 C-7.66 21 -8.32 21 -9 21 C-9.2475 21.94875 -9.495 22.8975 -9.75 23.875 C-11 27 -11 27 -13.078125 28.1953125 C-13.71234375 28.46085938 -14.3465625 28.72640625 -15 29 C6.94127569 29.12409144 28.85441619 28.96499547 50.78833008 28.35571289 C60.2873893 28.09726555 69.77107804 27.97793381 79.2736969 28.00854492 C87.22609361 28.02407993 95.16357651 27.81813395 103.11151123 27.57275391 C121.12790547 27.02397048 139.12652838 26.91831819 157.15039062 27.03710938 C158.0677298 27.04133911 158.98506897 27.04556885 159.9302063 27.04992676 C161.6293511 27.05797116 163.32848451 27.07018469 165.02755737 27.08776855 C168.97900161 27.10445762 172.8195299 26.9479509 176.74682617 26.5 C182.98648898 25.82081613 189.19496013 25.89435967 195.46484375 25.9375 C197.44274724 25.94385749 199.42065081 25.95020451 201.39855576 25.95609283 C203.48370099 25.96298115 205.56882688 25.97206868 207.65396118 25.98168945 C214.87604713 26.01401939 222.09816047 26.0261278 229.3203125 26.03125 C230.03858278 26.03179886 230.75685307 26.03234772 231.49688911 26.03291321 C246.09991981 26.03898251 260.69030691 25.78404506 275.28686523 25.35546875 C276.85399842 25.30970746 278.42113698 25.26413001 279.98828125 25.21875 C281.11551353 25.18593933 281.11551353 25.18593933 282.26551819 25.15246582 C287.62247736 25.00802776 292.97335743 24.98061349 298.33203125 25 C309.58987577 25.04063811 320.83491435 24.72902677 332.08789062 24.42724609 C342.78943014 24.14369773 353.47628882 23.97367128 364.1816864 24.00854492 C372.79895637 24.02543236 381.40520457 23.80965755 390.01864624 23.57275391 C405.67782587 23.14587908 421.32020351 22.88403542 436.98510742 23.03710938 C444.83394391 23.09031836 452.6256732 22.8654797 460.46484375 22.5 C471.71138746 21.98443722 482.92385289 21.91380689 494.18023682 21.98168945 C515.55581536 22.10420199 536.90939546 21.86077569 558.27880859 21.35546875 C560.23013842 21.30969022 562.18147296 21.26411252 564.1328125 21.21875 C565.07169815 21.19687622 566.0105838 21.17500244 566.97792053 21.15246582 C573.41505869 21.01147268 579.84571526 20.98329216 586.28404236 21.00854492 C594.66504104 21.02816039 603.0388659 20.79411807 611.41635132 20.57275391 C636.53702188 19.91323429 636.53702188 19.91323429 647.6875 20 C658.88259314 20.08677526 670.06316052 19.73705273 681.25271606 19.42724609 C693.54534605 19.09030079 705.81264732 18.9506207 718.1105957 19.01953125 C728.76207566 19.05648615 739.36810444 18.61316802 750 18 C752 24.75 752 24.75 752 27 C746.08169178 27.14535789 740.163319 27.28760858 734.24487305 27.42724609 C732.24062186 27.47493969 730.23638908 27.52341438 728.23217773 27.57275391 C717.51299182 27.83609816 706.80472133 28.03107876 696.0821991 27.99145508 C686.55110185 27.97042107 677.02702678 28.24691977 667.5 28.5 C657.18366121 28.77404787 646.87529405 29.03797482 636.5546875 29 C624.95361839 28.95741667 613.36311119 29.27759164 601.76660156 29.57275391 C590.70675011 29.8510487 579.66061079 30.02740838 568.59713745 29.99145508 C560.76351427 29.97594716 552.94502511 30.18287833 545.11590576 30.42724609 C526.04843158 31.01358949 506.99622193 31.07532603 487.92089844 30.96289062 C486.90450287 30.95866089 485.8881073 30.95443115 484.84091187 30.95007324 C482.93693645 30.94193752 481.03297238 30.92960326 479.12905884 30.91223145 C478.27613251 30.90896851 477.42320618 30.90570557 476.54443359 30.90234375 C475.80792572 30.89710693 475.07141785 30.89187012 474.31259155 30.88647461 C471.88769873 30.95898718 471.88769873 30.95898718 469.08308411 31.5 C466.03009207 31.99511981 463.21589404 32.11393507 460.1262207 32.09765625 C458.41083603 32.09276184 458.41083603 32.09276184 456.66079712 32.08776855 C455.42824188 32.07942993 454.19568665 32.07109131 452.92578125 32.0625 C450.93918914 32.05614246 448.95259697 32.04979539 446.96600342 32.04390717 C444.85992475 32.03699336 442.75386468 32.02790626 440.64779663 32.01831055 C433.37199859 31.98614863 426.09617557 31.97387477 418.8203125 31.96875 C418.0960652 31.96820114 417.37181789 31.96765228 416.6256237 31.96708679 C401.98200476 31.96105455 387.35124415 32.21478507 372.71411133 32.64453125 C371.14665266 32.69029382 369.57918858 32.7358713 368.01171875 32.78125 C366.88445625 32.81406067 366.88445625 32.81406067 365.73442078 32.84753418 C360.37748206 32.99197561 355.02662216 33.01938644 349.66796875 33 C338.41012423 32.95936189 327.16508565 33.27097323 315.91210938 33.57275391 C305.1689242 33.85740571 294.44055059 34.02631098 283.69348145 33.99145508 C275.63906391 33.97561552 267.59852933 34.18268708 259.54846191 34.42724609 C243.22618209 34.91725157 226.92335645 35.09653313 210.59423828 34.96289062 C202.87361073 34.91257882 195.21253021 35.05178109 187.50390625 35.5 C176.41421539 36.13214883 165.34456467 36.07841098 154.24032593 36.01831055 C132.66316131 35.9071062 111.10985828 36.08807372 89.53979492 36.64453125 C87.74919215 36.69033758 85.95858353 36.73591564 84.16796875 36.78125 C83.3054097 36.80312378 82.44285065 36.82499756 81.55415344 36.84753418 C75.0923033 37.00032185 68.63674184 37.01507458 62.17347717 36.99145508 C51.74924592 36.96874095 41.33173301 37.29332195 30.91210938 37.57275391 C28.20447852 37.64449539 25.49680189 37.71373234 22.7890625 37.78125 C21.90744446 37.80348633 21.02582642 37.82572266 20.11749268 37.84863281 C12.65026759 38.02036757 5.18678366 38.02436061 -2.28182983 37.93762207 C-3.51638412 37.92886047 -3.51638412 37.92886047 -4.77587891 37.91992188 C-5.49707916 37.91150269 -6.21827942 37.9030835 -6.96133423 37.89440918 C-9.08869034 38.00459363 -10.95559085 38.41706396 -13 39 C-12.278125 39.55429687 -11.55625 40.10859375 -10.8125 40.6796875 C-9.884375 41.40414062 -8.95625 42.12859375 -8 42.875 C-7.071875 43.59429688 -6.14375 44.31359375 -5.1875 45.0546875 C-4.1046875 46.01761719 -4.1046875 46.01761719 -3 47 C-3 47.66 -3 48.32 -3 49 C-2.1028125 49.433125 -2.1028125 49.433125 -1.1875 49.875 C1 51 1 51 4 53 C4 53.66 4 54.32 4 55 C4.99 55 5.98 55 7 55 C7 57.64 7 60.28 7 63 C6.01 63.495 6.01 63.495 5 64 C3.82780457 63.21654285 2.66236332 62.42297164 1.5 61.625 C0.8503125 61.18414063 0.200625 60.74328125 -0.46875 60.2890625 C-1.22671875 59.65097656 -1.22671875 59.65097656 -2 59 C-2 58.34 -2 57.68 -2 57 C-2.721875 56.773125 -3.44375 56.54625 -4.1875 56.3125 C-7.56773785 54.73505567 -9.37597596 52.64690797 -12 50 C-14.88958476 47.61735994 -17.82508948 45.3026047 -20.76953125 42.98828125 C-21.50558594 42.33214844 -22.24164063 41.67601562 -23 41 C-23 40.34 -23 39.68 -23 39 C-23.61875 38.7525 -24.2375 38.505 -24.875 38.25 C-27.35068687 36.79371361 -27.95125002 35.62187494 -29 33 C-28.34 33 -27.68 33 -27 33 C-26.71125 32.401875 -26.4225 31.80375 -26.125 31.1875 C-25 29 -25 29 -23 26 C-22.34 26 -21.68 26 -21 26 C-20.566875 25.1028125 -20.566875 25.1028125 -20.125 24.1875 C-19 22 -19 22 -17 19 C-16.34 19 -15.68 19 -15 19 C-14.566875 18.1028125 -14.566875 18.1028125 -14.125 17.1875 C-13 15 -13 15 -11 12 C-10.34 12 -9.68 12 -9 12 C-8.731875 11.443125 -8.46375 10.88625 -8.1875 10.3125 C-4.06650831 2.28741093 -4.06650831 2.28741093 0 0 Z " fill="#FFFFFF" transform="translate(29,777)"/>
<path d="" fill="#FFFFFF" transform="translate(0,0)"/>
<path d="" fill="#FFFFFF" transform="translate(0,0)"/>
<path d="" fill="#FFFFFF" transform="translate(0,0)"/>
</svg>
