<?xml version="1.0" encoding="UTF-8"?>
<svg version="1.1" xmlns="http://www.w3.org/2000/svg" width="819" height="736">
<path d="M0 0 C0.99 0.33 1.98 0.66 3 1 C3.25 8.625 3.25 8.625 1 12 C0.34 12 -0.32 12 -1 12 C-1.33 12.99 -1.66 13.98 -2 15 C-3.4375 17.1875 -3.4375 17.1875 -5 19 C-5.66 19 -6.32 19 -7 19 C-7 19.66 -7 20.32 -7 21 C-7.66 21 -8.32 21 -9 21 C-9.2475 21.94875 -9.495 22.8975 -9.75 23.875 C-11 27 -11 27 -13.078125 28.1953125 C-13.71234375 28.46085938 -14.3465625 28.72640625 -15 29 C6.94127569 29.12409144 28.85441619 28.96499547 50.78833008 28.35571289 C60.2873893 28.09726555 69.77107804 27.97793381 79.2736969 28.00854492 C87.22609361 28.02407993 95.16357651 27.81813395 103.11151123 27.57275391 C121.12790547 27.02397048 139.12652838 26.91831819 157.15039062 27.03710938 C158.0677298 27.04133911 158.98506897 27.04556885 159.9302063 27.04992676 C161.6293511 27.05797116 163.32848451 27.07018469 165.02755737 27.08776855 C168.97900161 27.10445762 172.8195299 26.9479509 176.74682617 26.5 C182.98648898 25.82081613 189.19496013 25.89435967 195.46484375 25.9375 C197.44274724 25.94385749 199.42065081 25.95020451 201.39855576 25.95609283 C203.48370099 25.96298115 205.56882688 25.97206868 207.65396118 25.98168945 C214.87604713 26.01401939 222.09816047 26.0261278 229.3203125 26.03125 C230.03858278 26.03179886 230.75685307 26.03234772 231.49688911 26.03291321 C246.09991981 26.03898251 260.69030691 25.78404506 275.28686523 25.35546875 C276.85399842 25.30970746 278.42113698 25.26413001 279.98828125 25.21875 C281.11551353 25.18593933 281.11551353 25.18593933 282.26551819 25.15246582 C287.62247736 25.00802776 292.97335743 24.98061349 298.33203125 25 C309.58987577 25.04063811 320.83491435 24.72902677 332.08789062 24.42724609 C342.78943014 24.14369773 353.47628882 23.97367128 364.1816864 24.00854492 C372.79895637 24.02543236 381.40520457 23.80965755 390.01864624 23.57275391 C405.67782587 23.14587908 421.32020351 22.88403542 436.98510742 23.03710938 C444.83394391 23.09031836 452.6256732 22.8654797 460.46484375 22.5 C471.71138746 21.98443722 482.92385289 21.91380689 494.18023682 21.98168945 C515.55581536 22.10420199 536.90939546 21.86077569 558.27880859 21.35546875 C560.23013842 21.30969022 562.18147296 21.26411252 564.1328125 21.21875 C565.07169815 21.19687622 566.0105838 21.17500244 566.97792053 21.15246582 C573.41505869 21.01147268 579.84571526 20.98329216 586.28404236 21.00854492 C594.66504104 21.02816039 603.0388659 20.79411807 611.41635132 20.57275391 C636.53702188 19.91323429 636.53702188 19.91323429 647.6875 20 C658.88259314 20.08677526 670.06316052 19.73705273 681.25271606 19.42724609 C693.54534605 19.09030079 705.81264732 18.9506207 718.1105957 19.01953125 C728.76207566 19.05648615 739.36810444 18.61316802 750 18 C752 24.75 752 24.75 752 27 C746.08169178 27.14535789 740.163319 27.28760858 734.24487305 27.42724609 C732.24062186 27.47493969 730.23638908 27.52341438 728.23217773 27.57275391 C717.51299182 27.83609816 706.80472133 28.03107876 696.0821991 27.99145508 C686.55110185 27.97042107 677.02702678 28.24691977 667.5 28.5 C657.18366121 28.77404787 646.87529405 29.03797482 636.5546875 29 C624.95361839 28.95741667 613.36311119 29.27759164 601.76660156 29.57275391 C590.70675011 29.8510487 579.66061079 30.02740838 568.59713745 29.99145508 C560.76351427 29.97594716 552.94502511 30.18287833 545.11590576 30.42724609 C526.04843158 31.01358949 506.99622193 31.07532603 487.92089844 30.96289062 C486.90450287 30.95866089 485.8881073 30.95443115 484.84091187 30.95007324 C482.93693645 30.94193752 481.03297238 30.92960326 479.12905884 30.91223145 C478.27613251 30.90896851 477.42320618 30.90570557 476.54443359 30.90234375 C475.80792572 30.89710693 475.07141785 30.89187012 474.31259155 30.88647461 C471.88769873 30.95898718 471.88769873 30.95898718 469.08308411 31.5 C466.03009207 31.99511981 463.21589404 32.11393507 460.1262207 32.09765625 C458.41083603 32.09276184 458.41083603 32.09276184 456.66079712 32.08776855 C455.42824188 32.07942993 454.19568665 32.07109131 452.92578125 32.0625 C450.93918914 32.05614246 448.95259697 32.04979539 446.96600342 32.04390717 C444.85992475 32.03699336 442.75386468 32.02790626 440.64779663 32.01831055 C433.37199859 31.98614863 426.09617557 31.97387477 418.8203125 31.96875 C418.0960652 31.96820114 417.37181789 31.96765228 416.6256237 31.96708679 C401.98200476 31.96105455 387.35124415 32.21478507 372.71411133 32.64453125 C371.14665266 32.69029382 369.57918858 32.7358713 368.01171875 32.78125 C366.88445625 32.81406067 366.88445625 32.81406067 365.73442078 32.84753418 C360.37748206 32.99197561 355.02662216 33.01938644 349.66796875 33 C338.41012423 32.95936189 327.16508565 33.27097323 315.91210938 33.57275391 C305.1689242 33.85740571 294.44055059 34.02631098 283.69348145 33.99145508 C275.63906391 33.97561552 267.59852933 34.18268708 259.54846191 34.42724609 C243.22618209 34.91725157 226.92335645 35.09653313 210.59423828 34.96289062 C202.87361073 34.91257882 195.21253021 35.05178109 187.50390625 35.5 C176.41421539 36.13214883 165.34456467 36.07841098 154.24032593 36.01831055 C132.66316131 35.9071062 111.10985828 36.08807372 89.53979492 36.64453125 C87.74919215 36.69033758 85.95858353 36.73591564 84.16796875 36.78125 C83.3054097 36.80312378 82.44285065 36.82499756 81.55415344 36.84753418 C75.0923033 37.00032185 68.63674184 37.01507458 62.17347717 36.99145508 C51.74924592 36.96874095 41.33173301 37.29332195 30.91210938 37.57275391 C28.20447852 37.64449539 25.49680189 37.71373234 22.7890625 37.78125 C21.90744446 37.80348633 21.02582642 37.82572266 20.11749268 37.84863281 C12.65026759 38.02036757 5.18678366 38.02436061 -2.28182983 37.93762207 C-3.51638412 37.92886047 -3.51638412 37.92886047 -4.77587891 37.91992188 C-5.49707916 37.91150269 -6.21827942 37.9030835 -6.96133423 37.89440918 C-9.08869034 38.00459363 -10.95559085 38.41706396 -13 39 C-12.278125 39.55429687 -11.55625 40.10859375 -10.8125 40.6796875 C-9.884375 41.40414062 -8.95625 42.12859375 -8 42.875 C-7.071875 43.59429688 -6.14375 44.31359375 -5.1875 45.0546875 C-4.1046875 46.01761719 -4.1046875 46.01761719 -3 47 C-3 47.66 -3 48.32 -3 49 C-2.1028125 49.433125 -2.1028125 49.433125 -1.1875 49.875 C1 51 1 51 4 53 C4 53.66 4 54.32 4 55 C4.99 55 5.98 55 7 55 C7 57.64 7 60.28 7 63 C6.01 63.495 6.01 63.495 5 64 C3.82780457 63.21654285 2.66236332 62.42297164 1.5 61.625 C0.8503125 61.18414063 0.200625 60.74328125 -0.46875 60.2890625 C-1.22671875 59.65097656 -1.22671875 59.65097656 -2 59 C-2 58.34 -2 57.68 -2 57 C-2.721875 56.773125 -3.44375 56.54625 -4.1875 56.3125 C-7.56773785 54.73505567 -9.37597596 52.64690797 -12 50 C-14.88958476 47.61735994 -17.82508948 45.3026047 -20.76953125 42.98828125 C-21.50558594 42.33214844 -22.24164063 41.67601562 -23 41 C-23 40.34 -23 39.68 -23 39 C-23.61875 38.7525 -24.2375 38.505 -24.875 38.25 C-27.35068687 36.79371361 -27.95125002 35.62187494 -29 33 C-28.34 33 -27.68 33 -27 33 C-26.71125 32.401875 -26.4225 31.80375 -26.125 31.1875 C-25 29 -25 29 -23 26 C-22.34 26 -21.68 26 -21 26 C-20.566875 25.1028125 -20.566875 25.1028125 -20.125 24.1875 C-19 22 -19 22 -17 19 C-16.34 19 -15.68 19 -15 19 C-14.566875 18.1028125 -14.566875 18.1028125 -14.125 17.1875 C-13 15 -13 15 -11 12 C-10.34 12 -9.68 12 -9 12 C-8.731875 11.443125 -8.46375 10.88625 -8.1875 10.3125 C-4.06650831 2.28741093 -4.06650831 2.28741093 0 0 Z " fill="#FFFFFF" transform="translate(67,671)"/>
<path d="M0 0 C2.60743924 1.72936679 3.52313395 3.4258349 5.00537109 6.17626953 C5.55177246 7.17376221 6.09817383 8.17125488 6.66113281 9.19897461 C7.24137207 10.28202881 7.82161133 11.36508301 8.41943359 12.48095703 C9.67793366 14.78018422 10.93839925 17.0783365 12.20068359 19.37548828 C12.52132782 19.96160385 12.84197205 20.54771942 13.17233276 21.15159607 C16.31576931 26.88673308 19.60308416 32.53213524 22.91943359 38.16845703 C27.99705486 46.82393194 33.01232813 55.51311518 37.98193359 64.23095703 C43.14497815 73.28685211 48.32801004 82.33065082 53.54443359 91.35595703 C58.76085845 100.38126549 63.94358335 109.42523506 69.10693359 118.48095703 C74.59380281 128.10343186 80.13984283 137.68939036 85.73803711 147.24755859 C91.07459037 156.37333092 96.31710055 165.55182715 101.54052734 174.74267578 C104.8901453 180.62676949 108.29225692 186.46951822 111.79345703 192.26464844 C113.23674331 194.67744903 114.59684654 197.12507944 115.91943359 199.60595703 C120.6476603 208.35873179 125.63511052 216.96399254 130.66943359 225.54345703 C133.44076267 230.2780739 136.09470894 235.06594886 138.70458984 239.89111328 C140.4357528 243.07584746 142.23301788 246.21616979 144.04443359 249.35595703 C144.97255859 251.02658203 144.97255859 251.02658203 145.91943359 252.73095703 C147.52362946 255.55256636 149.28492411 258.23268008 151.10693359 260.91845703 C153.38740933 264.30220532 155.27613631 267.67200436 157.04443359 271.35595703 C160.86310564 278.56226936 164.92040556 285.60871562 169.10693359 292.60595703 C175.93336637 304.08918877 182.5050481 315.70761505 189.04443359 327.35595703 C196.1342801 339.97351694 203.29383453 352.54296577 210.60717773 365.0324707 C215.09045717 372.69759127 219.51871822 380.39322964 223.91943359 388.10595703 C224.25237427 388.68942902 224.58531494 389.272901 224.92834473 389.87405396 C226.62224526 392.84318339 228.31528734 395.8128012 230.0078125 398.78271484 C233.37095411 404.68397392 236.73821427 410.58288053 240.10693359 416.48095703 C240.60407867 417.35149719 240.60407867 417.35149719 241.11126709 418.23962402 C246.51291288 427.69653082 251.94825566 437.13369764 257.39794922 446.56298828 C261.99409313 454.52063513 266.55518307 462.49788688 271.10693359 470.48095703 C276.04040093 479.13291562 281.01262773 487.76073208 286.04443359 496.35595703 C291.07624049 504.95118375 296.04832431 513.57907833 300.98193359 522.23095703 C306.16885786 531.3267569 311.37124866 540.41307966 316.60693359 549.48095703 C317.53022461 551.08003906 317.53022461 551.08003906 318.47216797 552.71142578 C320.32913553 555.92653227 322.18666939 559.14131081 324.04443359 562.35595703 C332.10397218 576.30205698 340.13889039 590.26126903 348.11776733 604.25363159 C353.35857949 613.44096754 358.66311713 622.58950487 364.00610352 631.71777344 C369.75916112 641.5551772 375.41231328 651.44892918 381.04443359 661.35595703 C381.37443359 661.35595703 381.70443359 661.35595703 382.04443359 661.35595703 C383.69443359 652.77595703 385.34443359 644.19595703 387.04443359 635.35595703 C388.03443359 635.35595703 389.02443359 635.35595703 390.04443359 635.35595703 C390.04443359 634.69595703 390.04443359 634.03595703 390.04443359 633.35595703 C391.36443359 632.69595703 392.68443359 632.03595703 394.04443359 631.35595703 C395.42765017 635.18348782 394.70745849 638.17412754 393.91943359 642.10595703 C393.78545166 642.77900879 393.65146973 643.45206055 393.51342773 644.14550781 C393.20737381 645.67188618 392.8969329 647.19738898 392.58300781 648.72216797 C391.97325859 651.70402409 391.38618753 654.69002119 390.79833984 657.67626953 C390.36047779 659.86135395 389.92167827 662.04625071 389.48193359 664.23095703 C389.2722998 665.29540039 389.06266602 666.35984375 388.84667969 667.45654297 C388.64252441 668.45202148 388.43836914 669.4475 388.22802734 670.47314453 C388.04812256 671.36630371 387.86821777 672.25946289 387.68286133 673.1796875 C387.04443359 675.35595703 387.04443359 675.35595703 385.04443359 677.35595703 C382.48974609 677.03564453 382.48974609 677.03564453 379.16943359 676.23095703 C377.92033203 675.94091797 376.67123047 675.65087891 375.38427734 675.35205078 C374.69446777 675.19075684 374.0046582 675.02946289 373.29394531 674.86328125 C369.12384749 673.92281421 364.92639092 673.11701913 360.73193359 672.29345703 C354.4821365 671.06356745 348.2580431 669.75822598 342.04443359 668.35595703 C342.61907983 665.40936675 342.83130382 664.54401272 345.16943359 662.48095703 C348.40302705 661.21563785 349.75701396 661.54495598 352.96240234 662.67626953 C355.44679891 663.48731081 357.91008457 663.95602221 360.48193359 664.41845703 C361.779375 664.65242187 361.779375 664.65242187 363.10302734 664.89111328 C366.74203133 665.46620156 370.38688269 665.91392147 374.04443359 666.35595703 C363.66307405 647.48209887 363.66307405 647.48209887 352.88134766 628.8359375 C349.17709892 622.60060235 345.54240297 616.32633974 341.91943359 610.04345703 C341.28465088 608.94267822 340.64986816 607.84189941 339.99584961 606.70776367 C334.96300688 597.96988402 329.96358176 589.21316853 324.96844482 580.45370483 C320.37141134 572.39496962 315.73166855 564.36259321 311.04443359 556.35595703 C305.3219491 546.58092938 299.6859992 536.75808747 294.07568359 526.91845703 C289.58887623 519.05058298 285.07678601 511.19770301 280.54443359 503.35595703 C274.98984643 493.74556985 269.4755324 484.11281757 263.97787476 474.46981812 C258.59409021 465.03014726 253.14780602 455.62826392 247.64770508 446.25585938 C243.2892772 438.81984772 239.09068247 431.30753574 234.98193359 423.73095703 C231.70544141 417.72682668 228.38009014 411.85463283 224.66943359 406.10595703 C221.18019792 400.66007108 218.08290116 395.06215076 215.04443359 389.35595703 C211.42055094 382.66849279 207.79204272 375.98899449 203.91162109 369.44580078 C201.04443359 364.56356193 201.04443359 364.56356193 201.04443359 362.35595703 C200.38443359 362.35595703 199.72443359 362.35595703 199.04443359 362.35595703 C198.67318359 361.59283203 198.30193359 360.82970703 197.91943359 360.04345703 C194.78288423 353.7849469 191.38750108 347.65731617 187.87646484 341.60205078 C187.51061279 340.96976562 187.14476074 340.33748047 186.76782227 339.68603516 C186.04405648 338.43895083 185.31644056 337.19409187 184.5847168 335.95166016 C182.04443359 331.5760053 182.04443359 331.5760053 182.04443359 329.35595703 C181.38443359 329.35595703 180.72443359 329.35595703 180.04443359 329.35595703 C179.05443359 325.89095703 179.05443359 325.89095703 178.04443359 322.35595703 C177.38443359 322.35595703 176.72443359 322.35595703 176.04443359 322.35595703 C175.68607422 321.60572266 175.32771484 320.85548828 174.95849609 320.08251953 C171.8020885 313.76599528 168.13503072 307.70367275 164.60693359 301.59033203 C164.03716797 300.59259766 163.46740234 299.59486328 162.88037109 298.56689453 C162.36007324 297.66245605 161.83977539 296.75801758 161.30371094 295.82617188 C160.18451216 293.63073697 159.50833292 291.76247866 159.04443359 289.35595703 C158.38443359 289.35595703 157.72443359 289.35595703 157.04443359 289.35595703 C156.68526855 288.61732422 156.32610352 287.87869141 155.95605469 287.11767578 C152.46199209 280.01905747 148.70712438 273.15744921 144.66943359 266.35595703 C143.43002716 264.24984794 142.19179357 262.14304832 140.95458984 260.03564453 C140.31408691 258.94477539 139.67358398 257.85390625 139.01367188 256.72998047 C135.67129704 251.00327328 132.38920691 245.24222672 129.10693359 239.48095703 C127.75444963 237.10834401 126.40157167 234.73595609 125.04833984 232.36376953 C124.54723694 231.48534393 124.54723694 231.48534393 124.03601074 230.58917236 C120.5595888 224.49942705 117.0533103 218.42703944 113.54443359 212.35595703 C108.01204245 202.78220476 102.51412774 193.18926345 97.03417969 183.58544922 C92.2272547 175.16228409 87.39677653 166.75306417 82.54443359 158.35595703 C77.35210826 149.37050141 72.18777197 140.36950406 67.04443359 131.35595703 C60.03502032 119.07342856 52.97870866 106.81837781 45.90332031 94.57373047 C42.15465326 88.08470607 38.41134693 81.59258753 34.66699219 75.10107422 C31.55625021 69.70847389 28.44430033 64.31657881 25.32958984 58.92626953 C16.71841955 44.0195852 8.13989267 29.09430594 -0.3671875 14.12792969 C-1.33003625 12.44760619 -2.30390676 10.77344681 -3.29785156 9.11132812 C-5.95556641 4.65619247 -5.95556641 4.65619247 -5.95556641 1.35595703 C-2.54333768 -0.83761858 -2.54333768 -0.83761858 0 0 Z " fill="#FFFFFF" transform="translate(379.95556640625,0.64404296875)"/>
<path d="M0 0 C1.29405873 2.77931138 2.2943656 5.36982875 3.234375 8.26953125 C3.51726379 9.10207932 3.80015259 9.93462738 4.09161377 10.79240417 C4.68741566 12.55604589 5.27532588 14.32237017 5.85595703 16.09106445 C6.74479021 18.79664157 7.65719264 21.49331752 8.57421875 24.18945312 C9.14984247 25.90317456 9.72410652 27.61735341 10.296875 29.33203125 C10.56868591 30.13945267 10.84049683 30.94687408 11.12054443 31.77876282 C11.36790344 32.53602158 11.61526245 33.29328033 11.87011719 34.07348633 C12.08899597 34.73665359 12.30787476 35.39982086 12.53338623 36.08308411 C13 38 13 38 13 42 C10.25 41.5625 10.25 41.5625 7 40 C5.07560362 37.25285444 4.1057931 34.14849454 3 31 C2.48571199 29.55337301 1.97138599 28.10675952 1.45703125 26.66015625 C0.63331361 24.33599094 -0.1839233 22.01044998 -0.98242188 19.67749023 C-1.99642294 16.05972319 -1.99642294 16.05972319 -4 13 C-4.35078613 13.63164063 -4.70157227 14.26328125 -5.06298828 14.9140625 C-12.70985139 28.66702135 -20.48090039 42.33369051 -28.4375 55.91015625 C-32.1321331 62.21570419 -35.78852681 68.54294436 -39.4375 74.875 C-40.06003662 75.95515381 -40.68257324 77.03530762 -41.32397461 78.14819336 C-42.58576826 80.33796334 -43.84740534 82.52782355 -45.10888672 84.71777344 C-48.23680148 90.14659942 -51.36858448 95.57319281 -54.5 101 C-55.75001879 103.16665583 -57.00001878 105.3333225 -58.25 107.5 C-80.75 146.49999999 -80.75 146.49999999 -82.62475586 149.74951172 C-83.8756448 151.91776264 -85.12645852 154.08605697 -86.37719727 156.25439453 C-89.48798335 161.64717915 -92.60004238 167.03922093 -95.71484375 172.4296875 C-102.53502637 184.23629484 -109.3232326 196.06027 -116.07736206 207.90472412 C-121.23335445 216.94329428 -126.45320673 225.94277138 -131.71118164 234.92236328 C-136.19189393 242.58602252 -140.60515756 250.28694638 -145 258 C-150.51263835 267.67481219 -156.08424567 277.31282137 -161.7109375 286.921875 C-166.19166146 294.5857377 -170.60506752 302.28678835 -175 310 C-179.95378823 318.69401686 -184.94378369 327.36497229 -190 336 C-195.0318979 344.5951729 -200.00389124 353.22312222 -204.9375 361.875 C-211.96603507 374.20025196 -219.04240434 386.49722067 -226.14111328 398.78222656 C-229.26324605 404.18670645 -232.38141204 409.59347412 -235.5 415 C-236.74998122 417.1666775 -237.99998121 419.33334417 -239.25 421.5 C-240.178125 423.10875 -240.178125 423.10875 -241.125 424.75 C-278 488.66666667 -314.875 552.58333333 -351.75 616.5 C-352.36931396 617.57354736 -352.98862793 618.64709473 -353.62670898 619.75317383 C-354.87076792 621.90940213 -356.11506942 624.06549049 -357.35961914 626.22143555 C-360.24154067 631.21447507 -363.1212475 636.2087388 -365.9919281 641.20825195 C-379.55097112 664.82166049 -379.55097112 664.82166049 -386 675 C-387.65 674.67 -389.3 674.34 -391 674 C-391.6796875 672.35009766 -391.6796875 672.35009766 -392 670 C-390.8828125 667.38818359 -390.8828125 667.38818359 -389.125 664.3984375 C-388.47716553 663.28194824 -387.82933105 662.16545898 -387.16186523 661.01513672 C-386.44140847 659.80165985 -385.7207822 658.5882836 -385 657.375 C-384.26319077 656.11415239 -383.52761148 654.85258528 -382.79321289 653.59033203 C-381.27841587 650.99027319 -379.7573062 648.39407466 -378.23095703 645.80078125 C-375.54785242 641.23769976 -372.9080914 636.64998669 -370.26953125 632.06103516 C-368.42208536 628.84819283 -366.56927817 625.63850052 -364.71484375 622.4296875 C-360.97348344 615.95489978 -357.23642517 609.47763657 -353.5 603 C-352.25001878 600.8333225 -351.00001879 598.66665583 -349.75 596.5 C-348.821875 594.89125 -348.821875 594.89125 -347.875 593.25 C-297.25 505.50000001 -297.25 505.50000001 -295.37524414 502.25048828 C-294.1243552 500.08223736 -292.87354148 497.91394303 -291.62280273 495.74560547 C-288.51201665 490.35282085 -285.39995762 484.96077907 -282.28515625 479.5703125 C-275.46497363 467.76370516 -268.6767674 455.93973 -261.92263794 444.09527588 C-256.76664555 435.05670572 -251.54679327 426.05722862 -246.28881836 417.07763672 C-241.80810607 409.41397748 -237.39484244 401.71305362 -233 394 C-227.48736165 384.32518781 -221.91575433 374.68717863 -216.2890625 365.078125 C-211.80833854 357.4142623 -207.39493248 349.71321165 -203 342 C-198.04621177 333.30598314 -193.05621631 324.63502771 -188 316 C-182.9681021 307.4048271 -177.99610876 298.77687778 -173.0625 290.125 C-166.03396493 277.79974804 -158.95759566 265.50277933 -151.85888672 253.21777344 C-148.73675395 247.81329355 -145.61858796 242.40652588 -142.5 237 C-141.25001878 234.8333225 -140.00001879 232.66665583 -138.75 230.5 C-138.13125 229.4275 -137.5125 228.355 -136.875 227.25 C-41.24999999 61.49999998 -41.24999999 61.49999998 -39.37231445 58.24536133 C-38.13124746 56.09416776 -36.89019907 53.94296345 -35.64916992 51.79174805 C-32.73501656 46.74037001 -29.82068182 41.6890969 -26.90567017 36.63821411 C-25.87326522 34.84933082 -24.84092044 33.06041283 -23.80859375 31.27148438 C-22.51314052 29.02662364 -21.2175743 26.7818281 -19.921875 24.53710938 C-16.93692086 19.36428226 -13.95754683 14.18854991 -11 9 C-11.7206665 9.25281738 -12.44133301 9.50563477 -13.18383789 9.76611328 C-16.47005397 10.90613747 -19.76578488 12.01572217 -23.0625 13.125 C-24.19623047 13.52332031 -25.32996094 13.92164062 -26.49804688 14.33203125 C-36.93293167 17.80018538 -36.93293167 17.80018538 -43 15 C-42.67 14.01 -42.34 13.02 -42 12 C-39.24305252 10.79244445 -36.57620596 9.77966921 -33.73046875 8.828125 C-32.89792068 8.54144958 -32.06537262 8.25477417 -31.20759583 7.95941162 C-29.44335451 7.35531455 -27.67705951 6.75718756 -25.90893555 6.16455078 C-23.20343253 5.2553542 -20.50693375 4.32255694 -17.81054688 3.38671875 C-16.09684317 2.80324928 -14.38266483 2.22117161 -12.66796875 1.640625 C-11.86054733 1.36051575 -11.05312592 1.08040649 -10.22123718 0.79180908 C-9.08534904 0.41581573 -9.08534904 0.41581573 -7.92651367 0.03222656 C-7.26334641 -0.19188904 -6.60017914 -0.41600464 -5.91691589 -0.64691162 C-3.56465778 -1.08018833 -2.2044773 -0.93238976 0 0 Z " fill="#FFFFFF" transform="translate(392,61)"/>
</svg>
